<svg style="fill:#FFF;width:100px;height:45px;margin-top:2px;background-color:#0e90d2" xmlns="http://www.w3.org/2000/svg" viewBox="0 0 89.67 45">
      <path d="M37.71,27.05c0,1.94-0.89,4.18-2.58,6.21c-1.61,1.9-5.75,5.58-12.08,11.58l-5.15-4.65l10.23-9.68
          c1.23-1.14,1.86-2.2,1.86-3.42c0-1.82-1.56-3.13-4.56-5.07c2.54-2.07,3.89-3.72,3.89-5.45c0-2.07-2.2-3.04-6.51-4.65v22.69h-7.27
          V8.79l7.86-3.25c9,3.51,13.6,5.41,13.6,10.06c0,2.07-0.89,3.89-2.75,5.58C36.57,22.82,37.71,24.68,37.71,27.05z"></path>
</svg>