<svg style="fill:#0e90d2;width:100px;height:45px;margin-top:2px;" xmlns="http://www.w3.org/2000/svg" viewBox="0 0 89.67 45">
      <path d="M37.71,27.05c0,1.94-0.89,4.18-2.58,6.21c-1.61,1.9-5.75,5.58-12.08,11.58l-5.15-4.65l10.23-9.68
          c1.23-1.14,1.86-2.2,1.86-3.42c0-1.82-1.56-3.13-4.56-5.07c2.54-2.07,3.89-3.72,3.89-5.45c0-2.07-2.2-3.04-6.51-4.65v22.69h-7.27
          V8.79l7.86-3.25c9,3.51,13.6,5.41,13.6,10.06c0,2.07-0.89,3.89-2.75,5.58C36.57,22.82,37.71,24.68,37.71,27.05z"></path>
      <rect x="41.38" y="12.98" width="7.14" height="21.63"></rect>
      <path d="M68.14,35.46l-1.86-3.63l-7.27,3.63c-4.39-1.82-6.34-4.73-6.34-9.63v-12.8h6.93v11.66
          c0,1.65,0.55,2.7,1.82,3.38c0.46-0.21,1.86-0.89,4.1-2.11V13.02h7.01v13.22c0,1.61,0.8,3.59,2.45,5.87L68.14,35.46z"></path>
      <path d="M49.25,6.01c0,1.45-1.21,2.66-2.23,3.35c-0.56,0.38-1.63,1.34-2.03,2.09c-0.35-0.78-1.47-1.7-2.01-2.08
          c-1.21-0.87-2.26-1.9-2.26-3.36c0-2.1,1.91-3.81,4.27-3.81C47.33,2.21,49.25,3.91,49.25,6.01z"></path>
  </svg>